<?xml version="1.0" standalone="no"?>
<!DOCTYPE svg PUBLIC "-//W3C//DTD SVG 20010904//EN"
 "http://www.w3.org/TR/2001/REC-SVG-20010904/DTD/svg10.dtd">
<svg version="1.0" xmlns="http://www.w3.org/2000/svg"
 width="500.000000pt" height="500.000000pt" viewBox="0 0 500.000000 500.000000"
 preserveAspectRatio="xMidYMid meet">

<g transform="translate(0.000000,500.000000) scale(0.100000,-0.100000)"
fill="#000000" stroke="none">
<path d="M2390 4495 c0 -9 -8 -19 -17 -22 -10 -4 -20 -10 -23 -14 -3 -4 -25
-9 -48 -10 -23 -2 -42 -6 -42 -9 0 -13 35 -38 83 -58 l47 -21 1 -83 c1 -46 1
-93 1 -105 -1 -16 11 -29 42 -47 l44 -26 49 28 c83 46 231 152 263 188 28 32
30 40 30 114 l0 80 -215 0 c-186 0 -215 -2 -215 -15z"/>
<path d="M1955 4207 c-105 -132 -164 -247 -188 -365 l-15 -73 25 -10 c65 -25
103 -68 118 -136 6 -32 6 -33 -29 -33 -26 0 -36 4 -36 15 0 29 -30 75 -60 90
-37 19 -103 19 -140 0 -34 -18 -70 -61 -70 -86 0 -13 -9 -19 -32 -22 l-33 -4
33 -1 32 -2 0 -68 c0 -79 7 -92 85 -152 l56 -43 61 60 61 61 5 71 5 71 32 0
c27 0 32 -3 30 -22 -1 -13 -3 -49 -4 -81 -1 -58 -2 -60 -68 -128 -93 -96 -160
-129 -265 -129 -86 0 -118 11 -118 39 0 19 29 51 47 51 6 0 16 -7 23 -15 8
-10 31 -15 69 -15 l56 0 -58 51 c-78 69 -87 90 -87 196 1 137 38 199 142 234
35 12 54 24 56 36 3 18 30 123 39 152 3 9 -4 2 -16 -16 -39 -62 -99 -116 -122
-110 -16 4 -18 3 -8 -9 14 -17 -2 -19 -20 -1 -11 10 -11 8 -2 -10 10 -19 9
-22 -4 -17 -8 4 -15 1 -15 -5 0 -6 -6 -8 -13 -5 -7 2 -33 -9 -58 -25 -34 -23
-45 -38 -49 -63 l-5 -33 -68 0 c-38 -1 -71 3 -73 7 -3 5 -9 6 -13 4 -4 -3 -25
1 -47 9 -47 17 -64 18 -64 5 0 -5 11 -10 24 -10 14 0 27 -4 30 -9 4 -5 -5 -8
-18 -7 -14 2 -27 -3 -30 -10 -3 -8 1 -14 9 -14 18 0 19 -20 3 -55 -14 -31 -28
-32 -28 -2 0 31 -9 38 -32 26 -14 -7 -23 -7 -33 1 -19 16 -4 44 33 64 15 9 21
15 15 16 -7 0 -27 -12 -44 -28 -27 -24 -32 -38 -42 -106 -11 -77 -11 -79 11
-94 12 -8 22 -23 22 -33 0 -22 -35 -43 -61 -36 -12 3 -20 -2 -24 -14 -4 -11
-10 -17 -15 -14 -5 3 -12 0 -16 -6 -4 -8 -3 -9 4 -5 8 5 12 0 12 -13 0 -25
-15 -28 -24 -5 -5 14 -7 14 -22 0 -17 -18 -28 -21 -19 -7 3 5 1 12 -4 15 -7 5
-31 -94 -31 -127 0 -4 56 -7 124 -7 l124 0 7 93 c16 207 17 212 49 215 l29 4
-7 -114 c-3 -62 -9 -146 -12 -185 l-6 -73 -164 0 -163 0 -8 -42 -9 -43 82 -3
c89 -3 118 -18 94 -47 -8 -10 -38 -15 -103 -17 l-92 -3 -6 -37 -6 -37 106 -3
106 -3 -3 -114 c-1 -65 -7 -120 -13 -128 -13 -15 -89 -18 -89 -3 0 6 -33 10
-79 10 l-79 0 -6 -31 c-13 -66 -11 -69 45 -69 28 0 59 5 69 10 22 12 65 -2 73
-23 3 -8 0 -23 -7 -33 -11 -15 -27 -17 -107 -15 l-94 2 -24 -133 c-13 -73 -31
-170 -40 -214 -22 -104 -16 -124 39 -124 32 0 48 -7 79 -35 l39 -36 49 43 c26
24 73 66 103 95 30 28 80 71 111 96 l57 46 6 83 c3 46 10 169 16 273 6 105 13
199 15 210 6 27 65 33 65 7 0 -9 -7 -134 -15 -277 -8 -143 -15 -270 -15 -283
0 -26 -33 -58 -298 -294 -163 -146 -163 -146 -219 -150 -56 -5 -93 -30 -93
-63 0 -26 41 -65 69 -65 29 0 133 78 255 190 89 82 211 180 224 180 8 0 10
-21 6 -67 -16 -221 -15 -213 -34 -213 -9 0 -24 -9 -31 -21 -8 -11 -29 -22 -46
-25 -28 -4 -33 -2 -33 14 0 11 16 33 36 49 33 27 35 31 32 81 l-3 53 -86 -78
c-47 -43 -116 -103 -153 -133 -37 -30 -69 -65 -72 -77 -14 -54 21 -93 82 -93
30 0 56 13 105 51 37 29 62 34 118 23 21 -4 31 -12 31 -24 0 -14 -11 -20 -51
-25 -62 -9 -89 -35 -89 -84 0 -42 22 -72 67 -95 43 -21 81 -20 121 4 30 19 32
23 32 77 0 72 28 125 88 168 40 27 51 30 121 30 83 0 124 -18 164 -71 42 -56
35 -178 -13 -229 -68 -72 -197 -86 -281 -31 l-43 29 -18 -23 c-10 -12 -18 -27
-18 -33 0 -19 78 -85 115 -97 33 -11 38 -10 69 18 44 39 92 47 145 26 23 -9
47 -25 54 -35 8 -11 31 -20 59 -24 l46 -6 4 53 c3 29 6 117 7 196 1 78 4 149
7 157 7 18 30 26 50 18 15 -6 16 -28 10 -227 -4 -122 -12 -226 -18 -233 -5 -7
-37 -13 -71 -15 -59 -3 -62 -4 -70 -35 -5 -17 -7 -43 -3 -56 14 -55 107 -116
180 -117 32 0 47 -8 85 -43 47 -43 228 -157 251 -157 7 0 28 14 47 30 18 17
42 30 53 30 33 0 40 33 40 194 l0 156 35 -3 35 -2 0 -185 c0 -186 1 -192 36
-238 1 -2 23 8 48 23 l46 27 0 358 0 358 -62 57 -63 56 -3 -140 c-2 -120 -5
-141 -18 -141 -9 0 -29 -14 -45 -31 -17 -19 -35 -29 -44 -25 -21 8 -19 20 10
54 24 29 25 34 25 194 l0 164 -49 48 -49 48 -3 -331 -4 -331 -57 -57 -57 -57
-24 22 c-27 25 -90 32 -81 8 6 -16 -32 -46 -58 -46 -27 0 -22 28 12 62 26 26
36 29 73 26 36 -4 48 0 85 30 l42 34 0 352 0 352 -40 39 -40 39 0 -99 c0 -143
-7 -175 -36 -175 l-24 0 0 167 0 167 -116 114 c-63 63 -117 112 -118 110 -2
-1 -6 -49 -9 -106 l-5 -103 38 -19 c77 -39 91 -161 27 -225 -46 -46 -123 -63
-182 -40 -65 24 -105 74 -105 132 0 60 29 106 84 132 23 12 47 21 53 21 16 0
23 52 23 177 0 111 -1 115 -29 151 -54 68 -100 154 -111 209 -17 81 -14 252 6
320 60 207 214 360 429 424 17 5 68 13 113 19 148 17 292 -14 400 -85 l53 -36
27 19 c41 30 130 72 181 88 56 17 239 19 312 3 140 -30 268 -110 365 -227 44
-54 60 -84 84 -160 26 -81 31 -110 32 -215 2 -158 -24 -243 -102 -341 l-52
-66 4 -94 c3 -94 3 -94 31 -100 26 -5 27 -8 27 -64 0 -40 -4 -59 -12 -60 -7
-1 -44 -2 -83 -4 l-70 -2 -3 51 c-3 46 0 54 22 69 23 14 26 23 26 75 0 33 -3
59 -8 59 -4 0 -57 -50 -117 -110 l-110 -110 0 -223 0 -222 -23 -3 c-36 -5 -36
-2 -40 253 l-3 140 -39 -42 -40 -42 0 -346 0 -345 28 -1 c23 -1 21 -2 -12 -10
-80 -19 -146 -85 -146 -146 0 -18 -4 -33 -10 -33 -14 0 -13 66 1 93 6 12 24
36 40 53 l29 30 -2 318 -3 318 -47 -42 -48 -42 0 -155 c0 -161 -7 -193 -40
-193 -13 0 -20 -7 -20 -20 0 -13 -7 -20 -20 -20 -11 0 -20 -4 -20 -10 0 -5 -7
-10 -15 -10 -25 0 -17 40 15 70 l30 28 0 118 0 118 -70 -69 -70 -69 0 -353 0
-353 37 -15 c21 -9 45 -22 54 -31 15 -13 18 -12 33 11 45 68 125 83 181 34 40
-35 40 -35 156 22 48 24 149 117 149 138 0 3 24 6 53 7 61 1 143 38 177 81 19
24 21 37 17 89 -5 70 10 116 49 146 l25 20 -4 164 -4 164 29 0 c26 0 28 -2 29
-45 1 -25 3 -49 4 -55 1 -5 3 -57 4 -114 l1 -104 31 -7 c17 -4 48 -22 68 -41
l38 -33 42 21 c104 51 85 152 -33 168 l-41 5 -6 70 c-4 39 -9 118 -13 177 l-6
107 35 -20 c33 -20 35 -24 35 -77 0 -32 3 -94 7 -139 l6 -83 32 0 c18 0 38 -7
45 -15 7 -8 35 -22 64 -31 68 -21 122 -8 165 41 58 67 29 137 -63 150 -41 6
-47 10 -44 29 2 17 11 22 50 24 42 3 53 -1 99 -37 56 -45 90 -51 139 -26 34
18 47 56 32 90 -6 13 -63 67 -126 119 -63 53 -117 100 -121 106 -3 5 -19 19
-36 31 l-31 22 4 -71 c4 -70 4 -71 -24 -83 -16 -6 -35 -21 -43 -32 -18 -25
-46 -16 -38 13 3 11 14 27 25 35 19 13 20 21 13 139 -5 94 -4 126 5 126 11 0
51 -33 200 -164 216 -190 242 -210 278 -210 24 0 40 7 53 23 26 31 24 57 -6
86 -19 20 -34 25 -72 25 -48 0 -51 2 -193 127 -80 69 -184 163 -233 207 l-87
81 -18 248 c-9 137 -15 252 -12 257 5 8 26 13 47 11 14 -1 20 -59 36 -310 l12
-184 120 -109 c66 -59 139 -124 163 -144 l43 -37 33 32 c24 23 46 34 77 38 24
3 47 11 51 17 12 18 9 73 -11 180 -11 55 -25 135 -31 176 -7 41 -15 81 -17 88
-4 8 -28 12 -74 12 l-69 0 0 30 0 30 61 0 61 0 -7 43 c-4 23 -9 45 -12 50 -6
11 -151 9 -158 -3 -11 -18 -83 -12 -94 8 -5 9 -10 64 -12 122 l-4 105 108 3
c115 3 113 1 101 61 l-6 31 -68 0 -68 0 -70 -65 c-39 -36 -72 -75 -74 -87 -10
-70 -140 -53 -140 17 0 35 25 55 68 55 25 0 45 12 86 48 93 84 108 92 183 92
l67 0 -7 37 c-4 21 -9 41 -11 45 -3 5 -57 8 -120 8 l-114 0 0 -24 c0 -61 -33
-102 -109 -138 -36 -17 -56 -19 -105 -14 -205 21 -282 235 -119 333 97 58 247
26 308 -67 l20 -30 113 0 c103 0 113 2 108 18 -3 9 -16 85 -30 167 -14 83 -32
170 -41 194 -35 102 -131 189 -266 243 -35 14 -156 61 -269 103 -113 43 -225
86 -249 96 -40 17 -43 18 -36 1 38 -91 75 -246 75 -319 0 -27 -4 -34 -27 -39
-43 -9 -73 -23 -73 -34 0 -13 -91 -96 -102 -92 -5 1 -7 -2 -3 -8 3 -5 1 -10
-4 -10 -6 0 -11 -9 -11 -19 0 -30 -19 -35 -25 -8 -10 37 12 103 45 135 16 17
55 40 86 53 l56 24 -7 50 c-21 168 -124 386 -225 480 l-33 30 7 -51 c7 -56 0
-70 -77 -151 -22 -22 -36 -46 -33 -52 5 -7 1 -9 -8 -5 -22 8 -21 -20 2 -37 14
-11 15 -11 5 1 -7 8 -13 17 -13 20 0 11 34 8 50 -4 13 -10 13 -9 0 8 -14 18
-13 19 1 14 9 -4 21 -2 27 4 11 11 -48 -170 -101 -307 -65 -168 -185 -426
-187 -400 0 6 -11 104 -25 219 -32 265 -32 255 8 287 47 37 62 45 52 28 -7
-11 -6 -12 6 -2 12 10 40 11 59 2 3 -1 12 -2 20 -3 8 -1 15 -7 15 -14 0 -13
15 -17 15 -4 1 13 -173 182 -233 228 l-59 44 -31 -22 c-57 -39 -197 -170 -197
-183 0 -7 -3 -15 -7 -18 -5 -2 -3 -3 3 -1 6 1 17 -3 24 -9 10 -9 11 -9 6 0
-16 30 15 18 62 -23 50 -44 52 -48 52 -96 0 -51 -47 -439 -54 -446 -3 -2 -32
53 -66 122 -33 69 -63 126 -66 126 -3 0 -2 -4 1 -10 3 -5 1 -10 -5 -10 -6 0
-8 -4 -5 -10 3 -5 0 -10 -8 -10 -8 0 -21 -8 -28 -17 -13 -16 -12 -17 4 -4 9 7
17 11 17 7 0 -3 -11 -13 -25 -22 -23 -15 -26 -14 -82 29 -32 24 -67 54 -77 66
l-20 22 53 53 52 53 -105 93 c-58 52 -106 96 -106 99 0 12 58 157 88 220 30
61 31 63 37 35 11 -49 17 -61 22 -46 4 10 8 10 21 0 15 -12 16 -11 3 4 -7 10
-18 15 -24 11 -6 -3 -7 -1 -3 6 4 6 3 17 -3 24 -5 7 -11 38 -13 68 l-3 56 -40
-50z m566 -224 c22 -14 38 -30 37 -34 -2 -5 -39 -33 -83 -63 -76 -52 -80 -53
-101 -37 -47 35 -48 49 -7 88 38 36 91 73 106 73 4 0 25 -12 48 -27z m-860
-136 c-10 -9 -11 -8 -5 6 3 10 9 15 12 12 3 -3 0 -11 -7 -18z m1757 -24 c4
-28 -34 -42 -56 -20 -13 13 -13 19 -2 32 18 22 54 15 58 -12z m166 -18 c17
-18 12 -41 -11 -49 -37 -15 -75 22 -52 50 15 18 44 18 63 -1z m114 -112 c-3
-36 -3 -36 -53 -39 -64 -3 -78 -6 -87 -19 -4 -5 -8 4 -8 22 0 45 38 73 102 73
l49 0 -3 -37z m176 -49 c24 -9 21 -61 -4 -74 -15 -8 -27 -8 -48 2 -66 32 -18
99 52 72z m-2486 -56 c-2 -23 -9 -34 -22 -36 -23 -5 -34 12 -28 44 3 18 11 24
29 24 21 0 24 -4 21 -32z m1939 -7 c23 -11 46 -29 53 -40 6 -12 9 -21 8 -22
-2 0 -15 -3 -31 -5 -24 -4 -94 -39 -107 -54 -3 -3 -18 -11 -35 -19 -27 -12
-31 -11 -48 10 -32 40 -12 94 48 131 38 23 59 22 112 -1z m342 -71 c1 -38 4
-79 6 -90 3 -16 -1 -20 -25 -20 l-29 0 -3 90 -3 90 26 0 c25 0 26 -2 28 -70z
m149 13 c2 -9 -7 -13 -27 -13 -21 0 -31 5 -31 16 0 19 51 16 58 -3z m-358 -51
c0 -45 -53 -121 -85 -122 -5 0 4 11 22 25 37 30 58 84 49 128 -4 23 -3 28 4
17 5 -8 10 -30 10 -48z m463 6 c4 -24 9 -82 13 -130 l6 -88 -29 0 -30 0 -7 92
c-11 157 -10 168 18 168 20 0 25 -6 29 -42z m-2548 10 c29 -13 43 -53 28 -77
-30 -48 -99 -51 -129 -6 -15 23 -15 27 0 51 15 22 45 41 68 43 4 1 19 -4 33
-11z m305 -8 c0 -5 -6 -10 -14 -10 -8 0 -16 -6 -19 -12 -2 -7 -7 -10 -11 -7
-8 7 21 39 35 39 5 0 9 -4 9 -10z m2144 -31 c3 -17 6 -47 6 -65 0 -29 -3 -34
-24 -34 -20 0 -24 6 -30 46 -10 76 -8 84 18 84 18 0 25 -7 30 -31z m-1796 -41
c7 -7 12 -15 12 -19 0 -13 -31 -39 -45 -39 -19 0 -37 34 -29 54 7 19 45 21 62
4z m872 -3 c-7 -9 -15 -13 -17 -11 -7 7 7 26 19 26 6 0 6 -6 -2 -15z m-1909
-58 c-10 -9 -11 -8 -5 6 3 10 9 15 12 12 3 -3 0 -11 -7 -18z m371 -123 c-2
-65 -4 -120 -5 -121 -1 -1 -15 -5 -31 -9 l-29 -7 8 124 c7 123 12 139 44 134
14 -2 16 -18 13 -121z m-307 106 c9 -15 -3 -47 -20 -54 -34 -13 -66 24 -44 50
13 16 55 19 64 4z m465 -214 c0 -21 -27 -38 -50 -31 -24 8 -26 40 -3 54 21 11
53 -3 53 -23z m-264 -76 c11 -10 11 -15 -1 -33 -7 -12 -19 -41 -26 -64 -15
-52 -25 -54 -33 -8 -6 32 -9 34 -32 25 -14 -6 -39 -10 -56 -10 -28 0 -30 2
-23 28 8 32 19 45 60 67 32 17 87 14 111 -5z m198 -9 c12 -19 -7 -41 -35 -41
-21 0 -29 5 -29 18 0 10 3 22 7 25 10 10 51 8 57 -2z m2167 -168 c0 -27 2 -55
3 -63 2 -8 6 -91 10 -185 4 -93 9 -209 12 -257 l6 -88 -31 0 c-18 0 -31 5 -31
13 0 13 -15 310 -26 510 l-6 117 31 0 c30 0 31 -1 32 -47z m-2226 -23 c0 -20
-6 -26 -28 -28 -32 -4 -46 20 -26 44 19 24 54 14 54 -16z m-291 -107 c-8 -61
-8 -60 -42 -55 -23 3 -29 9 -27 25 1 12 3 34 4 50 1 24 5 27 37 27 l35 0 -7
-47z m282 23 c3 -8 0 -108 -6 -223 l-11 -208 48 -42 c38 -34 56 -43 86 -43 30
0 37 -4 37 -20 0 -15 -7 -20 -29 -20 -17 0 -33 -4 -36 -10 -15 -24 -49 -6
-111 57 -48 50 -64 72 -60 87 2 12 8 107 12 211 3 105 11 198 16 208 11 20 46
23 54 3z m2502 -58 c32 -32 -8 -80 -48 -58 -34 18 -19 70 20 70 9 0 21 -5 28
-12z m-2796 -183 l-2 -80 -53 -47 c-39 -36 -60 -47 -84 -48 -22 0 -33 5 -33
14 0 40 -93 63 -103 26 -3 -11 -12 -20 -21 -20 -9 0 -16 -4 -16 -10 0 -16 -40
-11 -47 5 -7 20 23 54 65 72 25 10 42 11 72 3 22 -6 42 -15 45 -20 12 -19 51
-10 77 18 20 21 27 42 32 91 6 67 17 83 51 79 18 -3 20 -9 17 -83z m2814 77
c6 -4 14 -36 18 -72 6 -50 13 -71 34 -92 29 -32 81 -38 102 -13 16 20 100 20
126 0 18 -13 15 -14 -28 -15 -40 0 -48 -3 -48 -19 0 -23 -45 -41 -102 -41 -33
0 -49 8 -94 46 l-54 46 0 78 c0 42 3 80 7 83 8 9 25 9 39 -1z m142 -24 c-9 -7
-18 -20 -21 -28 -4 -10 -6 -8 -6 6 -1 24 7 34 28 34 13 0 13 -2 -1 -12z
m-2508 -243 c0 -31 -3 -35 -25 -35 -22 0 -25 4 -25 35 0 31 3 35 25 35 22 0
25 -4 25 -35z m1930 -1 c0 -31 -3 -35 -22 -32 -39 5 -37 68 2 68 16 0 20 -6
20 -36z m-2401 -48 c10 -11 8 -19 -5 -34 -17 -20 -17 -20 -34 1 -16 20 -17 22
-1 34 21 16 26 16 40 -1z m2851 -1 c10 -12 10 -18 0 -31 -12 -13 -15 -13 -28
0 -15 15 -10 46 6 46 5 0 15 -7 22 -15z m-2912 -37 c18 -18 15 -36 -9 -49 -17
-9 -25 -8 -37 5 -14 14 -14 17 3 36 21 23 27 24 43 8z m2462 -19 c0 -14 -7
-19 -25 -19 -18 0 -25 5 -25 18 0 25 7 31 31 25 10 -3 19 -14 19 -24z m515 11
c14 -16 15 -22 5 -34 -10 -14 -15 -13 -35 0 -21 13 -22 19 -12 35 15 24 20 24
42 -1z m-2661 -23 c9 -15 7 -21 -9 -33 -24 -18 -44 -15 -58 8 -8 12 -7 21 3
33 17 20 49 16 64 -8z m2335 2 c30 -11 31 -12 17 -33 -8 -13 -17 -45 -21 -72
-11 -69 -18 -75 -30 -24 l-11 44 -52 0 c-42 -1 -52 2 -52 15 0 21 17 43 50 65
29 19 55 20 99 5z m-2815 -51 c17 -28 -4 -53 -45 -53 -28 0 -35 4 -37 24 -7
46 57 68 82 29z m3327 12 c29 -16 25 -58 -6 -66 -43 -11 -73 34 -43 64 15 15
24 15 49 2z m-2633 -37 c3 -20 -1 -23 -27 -23 -23 0 -31 5 -31 18 0 25 10 33
35 30 12 -2 21 -12 23 -25z m-194 -2 c18 -7 16 -9 -12 -19 -18 -6 -32 -17 -32
-25 0 -13 -16 -22 -57 -32 -33 -8 4 60 41 75 26 11 35 11 60 1z m2126 -23 c0
-13 3 -47 6 -75 6 -52 6 -53 -20 -53 -18 0 -26 5 -27 18 0 9 -2 43 -5 75 -5
56 -5 57 20 57 20 0 26 -5 26 -22z m-1942 -80 c-2 -25 -8 -34 -25 -36 -19 -3
-23 1 -23 26 0 34 6 42 32 42 16 0 19 -6 16 -32z m2110 -122 c3 -61 1 -68 -17
-73 -12 -3 -19 -9 -16 -13 5 -8 -16 -19 -52 -26 -20 -4 -23 0 -23 26 0 23 6
33 25 42 22 10 25 17 25 62 0 50 1 52 28 50 26 -1 27 -2 30 -68z m-1748 34 c0
-25 -4 -30 -25 -30 -21 0 -25 5 -25 30 0 25 4 30 25 30 21 0 25 -5 25 -30z
m1250 6 c0 -30 -14 -40 -46 -32 -14 4 -24 14 -24 25 0 24 9 31 42 31 23 0 28
-4 28 -24z m625 -10 c25 -18 13 -46 -20 -46 -30 0 -43 24 -25 45 15 18 21 19
45 1z m-2537 -8 c16 -16 15 -23 -4 -42 -12 -12 -20 -13 -35 -6 -10 6 -19 16
-19 23 0 16 20 37 35 37 6 0 16 -5 23 -12z m2252 -38 c0 -25 -4 -30 -25 -30
-21 0 -25 5 -25 30 0 25 4 30 25 30 21 0 25 -5 25 -30z m-2100 -30 c43 -43 8
-110 -57 -110 -32 0 -73 28 -73 50 0 22 30 69 47 73 39 10 64 6 83 -13z m510
-20 c0 -16 -7 -20 -30 -20 -23 0 -30 4 -30 20 0 16 7 20 30 20 23 0 30 -4 30
-20z m1245 -10 c0 -29 -34 -40 -54 -17 -18 23 -2 49 28 45 20 -2 26 -8 26 -28z
m195 -10 c0 -16 -7 -20 -30 -20 -23 0 -30 4 -30 20 0 16 7 20 30 20 23 0 30
-4 30 -20z m150 -30 c0 -15 -7 -20 -25 -20 -18 0 -25 5 -25 20 0 15 7 20 25
20 18 0 25 -5 25 -20z m355 -40 c-3 -5 -11 -10 -16 -10 -6 0 -7 5 -4 10 3 6
11 10 16 10 6 0 7 -4 4 -10z m-725 -15 c-7 -8 -17 -15 -22 -15 -6 0 -5 7 2 15
7 8 17 15 22 15 6 0 5 -7 -2 -15z m220 0 c0 -10 -10 -15 -30 -15 -20 0 -30 5
-30 15 0 10 10 15 30 15 20 0 30 -5 30 -15z m-1501 -19 c22 -26 -19 -69 -49
-51 -11 7 -14 48 -3 58 11 12 40 8 52 -7z m1659 -33 c3 -31 1 -33 -27 -33 -27
0 -31 3 -31 28 0 35 8 44 35 40 15 -2 21 -12 23 -35z m-2641 -15 c-12 -13 -24
-19 -25 -15 -5 11 18 37 34 37 9 0 5 -8 -9 -22z m3274 6 c17 -21 0 -49 -32
-49 -24 0 -36 23 -25 51 7 19 40 18 57 -2z m-791 -8 c0 -2 3 -11 6 -20 5 -13
-1 -16 -30 -16 -34 0 -47 15 -29 33 7 8 53 10 53 3z m-1456 -52 c9 -3 16 -17
16 -30 0 -20 -5 -24 -30 -24 -38 0 -52 27 -25 46 22 16 19 16 39 8z m106 -24
c0 -15 -7 -20 -25 -20 -18 0 -25 5 -25 20 0 15 7 20 25 20 18 0 25 -5 25 -20z
m1168 -7 c3 -20 -1 -23 -32 -23 -28 0 -36 4 -36 18 0 26 10 33 40 30 17 -2 26
-10 28 -25z m224 -20 c38 -34 8 -93 -47 -93 -39 0 -65 22 -65 55 0 50 72 75
112 38z m416 -35 c17 -17 15 -46 -5 -56 -37 -19 -76 24 -47 52 19 19 36 20 52
4z m-1810 -21 c3 -12 -4 -17 -21 -17 -29 0 -44 27 -19 33 25 7 37 2 40 -16z
m-925 -5 c-10 -10 -20 -17 -22 -16 -6 5 20 34 30 34 5 0 1 -8 -8 -18z m825 -1
c23 -14 10 -46 -21 -49 -35 -4 -49 25 -22 44 22 16 25 17 43 5z m2042 -6 c18
-21 5 -45 -25 -45 -27 0 -41 20 -31 45 7 19 40 19 56 0z m-745 -16 c31 -8 56
-24 79 -50 93 -102 37 -261 -97 -276 -124 -14 -231 99 -198 209 16 53 64 104
109 116 51 14 57 14 107 1z m-1195 -54 c0 -9 -9 -15 -25 -15 -16 0 -25 6 -25
15 0 9 9 15 25 15 16 0 25 -6 25 -15z m-150 -50 c-7 -9 -15 -13 -17 -11 -7 7
7 26 19 26 6 0 6 -6 -2 -15z m-215 -55 c0 -16 -6 -26 -19 -28 -25 -5 -39 12
-31 38 10 31 50 24 50 -10z m365 -54 c0 -44 -5 -67 -15 -76 -8 -7 -49 -12 -97
-13 -80 -2 -83 -1 -84 21 -1 13 10 37 23 53 21 25 32 29 74 29 46 0 49 2 49
25 0 20 5 25 25 25 24 0 25 -2 25 -64z m-224 -181 c19 -29 12 -57 -20 -75 -57
-30 -107 22 -72 75 22 34 70 34 92 0z m1526 8 c32 -28 22 -74 -19 -87 -50 -16
-92 26 -70 69 20 39 58 47 89 18z m-628 -22 c14 -15 15 -24 6 -40 -14 -27 -46
-27 -60 -1 -8 14 -8 26 0 40 13 25 32 25 54 1z m-254 -11 c0 -16 -7 -20 -30
-20 -23 0 -30 4 -30 20 0 16 7 20 30 20 23 0 30 -4 30 -20z m508 -22 c7 -7 12
-21 12 -33 0 -48 -68 -64 -88 -21 -20 45 41 89 76 54z m110 -66 c4 -36 -13
-48 -53 -38 -19 5 -25 13 -25 35 0 32 12 41 50 38 20 -2 26 -8 28 -35z m-618
-7 c0 -10 -10 -15 -30 -15 -20 0 -30 5 -30 15 0 10 10 15 30 15 20 0 30 -5 30
-15z m-210 -56 c0 -27 -44 -47 -65 -29 -22 18 -18 49 8 59 28 11 57 -4 57 -30z
m420 -14 c-7 -9 -15 -13 -19 -10 -3 3 1 10 9 15 21 14 24 12 10 -5z m-210 -10
c0 -10 -10 -15 -30 -15 -20 0 -30 5 -30 15 0 10 10 15 30 15 20 0 30 -5 30
-15z"/>
<path d="M3127 1380 c-7 -34 -48 -51 -79 -31 -15 10 -18 8 -19 -11 -3 -48 3
-64 32 -90 66 -62 169 -18 169 72 0 31 -6 47 -26 65 -38 35 -70 33 -77 -5z"/>
<path d="M1400 3730 c-9 -6 -10 -10 -3 -10 6 0 15 5 18 10 8 12 4 12 -15 0z"/>
<path d="M901 3384 c0 -11 3 -14 6 -6 3 7 2 16 -1 19 -3 4 -6 -2 -5 -13z"/>
<path d="M3650 3220 c0 -38 13 -54 23 -27 3 7 8 5 13 -8 4 -11 17 -27 29 -37
11 -9 17 -20 12 -24 -4 -4 -13 -2 -19 4 -19 19 -28 14 -29 -15 0 -16 -4 -37
-9 -48 -7 -18 -9 -16 -15 12 -5 20 -12 30 -20 26 -8 -2 -20 8 -29 24 -13 26
-19 29 -50 25 -40 -5 -42 -10 -21 -52 34 -66 157 -97 220 -56 49 32 65 111 32
157 -17 23 -87 59 -114 59 -20 0 -23 -5 -23 -40z"/>
<path d="M2802 3178 l-2 -58 -45 0 -45 0 0 -40 0 -40 48 -1 c26 -1 52 -1 57 1
6 1 4 -4 -2 -11 -7 -7 -13 -26 -13 -41 0 -27 -2 -28 -45 -28 l-45 0 0 -90 0
-90 50 0 50 0 0 90 0 90 69 0 c73 0 101 -6 101 -22 0 -5 -4 -6 -10 -3 -13 8
-51 -13 -48 -28 1 -7 -4 -29 -11 -51 -10 -28 -16 -35 -22 -25 -6 9 -9 10 -9 2
0 -6 -12 -13 -27 -15 -27 -3 -28 -6 -34 -73 -4 -58 -6 -62 -7 -22 l-2 47 -95
0 -95 0 0 -50 0 -50 145 0 145 0 0 -65 0 -65 33 1 c28 0 29 1 11 9 -15 6 -23
19 -26 44 l-4 36 146 -2 c109 -2 122 -3 53 -5 l-93 -4 0 -43 c0 -40 4 -47 45
-80 25 -21 45 -42 45 -49 0 -6 -22 10 -48 36 -46 45 -50 47 -105 47 l-57 0 0
-65 0 -65 52 0 c33 0 58 -6 69 -16 16 -14 23 -10 89 52 96 91 103 110 94 254
-4 63 -13 133 -21 155 -21 61 -62 118 -79 111 -8 -3 -13 -2 -10 3 3 5 -2 12
-11 15 -9 4 -20 1 -25 -6 -6 -11 -8 -10 -8 0 0 17 -26 43 -34 35 -3 -3 0 -13
7 -22 10 -14 10 -14 -4 -4 -9 7 -18 11 -20 8 -3 -2 -5 5 -6 16 -1 12 3 17 10
13 7 -3 3 2 -7 10 -11 9 -35 16 -53 16 -30 0 -33 3 -34 30 -2 45 -3 50 -11 50
-5 0 -22 0 -39 0 -25 0 -30 -3 -25 -16 5 -14 4 -15 -9 -4 -13 11 -14 10 -9 -4
3 -9 1 -16 -5 -16 -6 0 -12 31 -14 78 -2 66 -3 68 -5 20z m288 -231 c0 -2 -10
-12 -22 -23 l-23 -19 19 23 c18 21 26 27 26 19z m107 -192 l2 -36 -127 3 -126
3 -7 33 -6 32 131 0 131 0 2 -35z"/>
<path d="M1987 3213 c-4 -3 -7 -17 -7 -30 0 -12 -4 -23 -9 -23 -5 0 -21 -4
-36 -10 -23 -9 -24 -12 -14 -31 9 -17 8 -24 -2 -31 -10 -6 -6 -7 11 -2 69 19
70 20 70 79 0 56 -1 60 -13 48z"/>
<path d="M2152 3130 c-2 -104 2 -98 -64 -101 -20 0 -23 -4 -32 -41 -6 -28 -6
-28 49 -28 l55 0 0 40 0 40 50 0 50 0 0 40 0 40 -49 0 -50 0 -4 53 c-2 32 -4
15 -5 -43z"/>
<path d="M2903 3180 c0 -25 2 -35 4 -22 2 12 2 32 0 45 -2 12 -4 2 -4 -23z"/>
<path d="M2970 3160 c0 -56 1 -59 28 -65 16 -3 59 -24 96 -45 64 -37 69 -39
91 -24 13 8 31 26 39 39 15 23 15 25 -20 51 l-36 28 -34 -42 -35 -41 -34 16
-34 16 24 48 25 48 -33 9 c-80 25 -77 26 -77 -38z"/>
<path d="M2658 3194 c-25 -13 -28 -20 -28 -70 0 -59 -27 -114 -56 -114 -8 0
-12 -4 -9 -10 3 -5 0 -7 -9 -4 -8 3 -16 -2 -19 -13 -3 -10 -6 16 -8 57 -2 52
-4 62 -6 33 -4 -43 -4 -43 -44 -43 l-39 0 0 43 c0 39 -4 44 -48 74 -44 30 -93
53 -112 53 -4 0 -7 -37 -6 -82 l1 -83 30 -1 c103 -2 128 -5 120 -13 -6 -6 -21
-11 -35 -13 -14 -2 -31 -7 -39 -12 -10 -6 -12 -5 -7 2 4 7 -7 4 -23 -6 -17 -9
-31 -20 -31 -23 0 -3 12 -17 28 -32 27 -26 30 -26 166 -28 l139 -1 36 39 36
38 -5 112 -5 111 -27 -14z"/>
<path d="M3209 3036 l-35 -33 20 -24 21 -25 48 30 48 29 -28 29 c-15 15 -29
28 -32 28 -3 0 -22 -15 -42 -34z"/>
<path d="M1839 3043 c-13 -17 -13 -17 6 -3 11 8 22 16 24 17 2 2 0 3 -6 3 -6
0 -17 -8 -24 -17z"/>
<path d="M1971 3031 c-11 -7 -11 -15 -3 -39 9 -27 7 -33 -17 -56 -32 -31 -38
-31 -71 -6 -14 11 -29 20 -34 20 -5 0 3 -9 17 -20 14 -12 25 -26 23 -33 -1 -7
-1 -9 1 -4 6 9 23 -1 23 -14 0 -6 -27 -9 -67 -8 l-68 2 -12 -41 -12 -42 140 0
139 0 0 -35 0 -35 -140 0 -140 0 0 -45 0 -45 141 0 141 0 -5 -45 c-4 -26 -2
-45 4 -45 5 0 9 29 9 65 l0 65 150 0 150 0 0 50 0 50 -94 0 -95 0 -4 -37 c-3
-33 -4 -31 -5 12 l-2 51 -57 2 c-32 1 -79 2 -105 3 l-48 1 0 48 c0 59 27 97
75 106 33 6 35 9 35 45 0 36 -2 39 -27 39 -16 0 -34 -4 -42 -9z"/>
<path d="M1723 3014 c0 -16 13 -19 21 -5 3 5 0 11 -7 14 -8 3 -14 -1 -14 -9z"/>
<path d="M1798 3014 c-4 -3 -14 -7 -25 -8 -11 -2 -17 -10 -15 -22 3 -16 2 -16
-15 -3 -16 13 -17 13 -4 -3 7 -10 14 -18 15 -18 0 0 14 14 29 30 16 17 27 30
25 30 -3 0 -7 -3 -10 -6z"/>
<path d="M2251 2870 l-2 -90 45 0 46 0 0 59 c0 57 -2 61 -37 90 -21 17 -40 31
-44 31 -3 0 -7 -40 -8 -90z"/>
<path d="M2658 2925 c-35 -33 -38 -40 -38 -90 l0 -55 40 0 40 0 0 90 c0 50 -1
90 -2 90 -2 0 -20 -16 -40 -35z"/>
<path d="M3305 2924 c-22 -13 -44 -25 -48 -27 -5 -1 -1 -26 8 -54 l17 -52 62
-4 61 -3 -62 -2 -63 -2 0 -120 c0 -81 -5 -132 -14 -155 -8 -18 -11 -37 -8 -41
4 -4 2 -4 -5 0 -7 4 -23 -8 -38 -28 l-26 -34 36 -36 c20 -20 40 -36 45 -36 15
0 91 101 111 148 49 113 47 305 -5 417 -14 30 -26 55 -28 54 -2 0 -21 -12 -43
-25z"/>
<path d="M2151 2843 l-1 -63 45 0 45 0 0 46 c0 37 -3 44 -13 35 -10 -8 -17 -7
-27 2 -10 9 -11 9 -5 -1 6 -11 3 -11 -14 -1 -11 8 -22 20 -25 29 -2 8 -4 -13
-5 -47z"/>
<path d="M1564 2843 c-3 -16 -7 -34 -10 -40 -2 -10 13 -13 57 -13 l60 0 -3
-32 c-3 -32 -4 -33 -63 -39 l-60 -6 63 -1 62 -2 0 -50 0 -50 -60 0 c-35 0 -60
-4 -60 -11 0 -13 22 -99 25 -99 1 0 19 7 38 15 20 8 42 15 50 15 18 0 44 -73
28 -78 -6 -2 -9 -8 -6 -13 4 -5 0 -7 -7 -4 -7 3 -23 -3 -35 -13 l-22 -17 35
-38 35 -37 39 31 c22 18 40 34 40 35 0 2 -18 27 -40 56 -22 29 -43 67 -46 85
-8 42 0 293 10 316 7 15 1 17 -58 17 -63 0 -66 -1 -72 -27z"/>
<path d="M4004 2812 c3 -21 6 -47 6 -59 0 -22 3 -23 91 -23 90 0 91 0 85 23
-3 12 -6 32 -6 44 0 40 -24 51 -106 51 l-76 0 6 -36z"/>
<path d="M786 2823 c-3 -10 -8 -35 -12 -55 l-6 -38 86 0 86 0 0 33 c0 17 3 42
6 55 6 21 4 22 -74 22 -68 0 -81 -3 -86 -17z"/>
<path d="M1870 2611 c-8 -6 -18 -7 -22 -5 -4 3 -5 -3 -1 -13 3 -10 3 -15 -1
-12 -4 4 -22 3 -41 -1 -20 -4 -32 -4 -29 1 3 5 -2 6 -10 3 -39 -15 1 -78 126
-199 160 -155 148 -150 148 -66 l0 70 -62 4 -63 3 63 2 62 2 0 65 0 65 -53 0
c-50 0 -55 -2 -90 -45 -21 -25 -43 -45 -50 -45 -6 0 8 19 31 43 37 38 42 48
42 90 0 49 -14 60 -50 38z m17 -16 c0 -8 -4 -12 -9 -9 -5 3 -6 10 -3 15 9 13
12 11 12 -6z"/>
<path d="M2720 2392 c-5 -2 -10 -24 -10 -48 0 -41 4 -48 60 -101 33 -31 60
-61 60 -66 0 -6 -15 3 -32 19 -46 42 -69 59 -67 48 3 -18 -1 -34 -10 -34 -10
0 -20 61 -22 133 l-2 47 -38 0 -39 0 0 -114 0 -115 50 -43 c27 -24 50 -47 50
-51 0 -4 -22 11 -50 35 -60 52 -80 57 -216 52 l-105 -3 -54 -47 -55 -46 20
-28 c25 -36 25 -47 -1 -61 -17 -9 -26 -7 -48 9 -29 21 -26 22 -85 -25 l-28
-22 58 -65 c33 -36 64 -65 70 -66 6 0 59 45 118 100 58 55 109 100 113 100 5
0 -11 -17 -35 -38 l-44 -37 37 -42 c20 -24 45 -43 56 -43 11 0 57 36 103 80
l83 80 27 -29 27 -28 -23 -16 c-65 -45 -64 -41 -14 -88 26 -23 44 -45 40 -48
-3 -3 -13 3 -23 14 -9 11 -29 31 -44 44 l-27 25 -53 -50 c-100 -96 -84 -94
-166 -18 l-72 67 -45 -44 -44 -43 32 -33 31 -32 46 39 c59 50 65 44 9 -9 l-43
-40 75 -76 c41 -41 81 -75 88 -75 14 0 373 340 631 598 l153 154 -38 39 c-21
21 -43 39 -49 39 -6 0 -40 -29 -75 -65 l-65 -65 45 -40 c56 -49 47 -53 -10 -5
l-42 35 -69 -61 c-40 -35 -66 -66 -62 -73 3 -6 2 -7 -2 -3 -5 4 -43 -27 -86
-69 -78 -78 -101 -87 -123 -51 -12 18 -12 18 267 286 100 96 101 111 11 111
l-53 0 -4 -57 -3 -58 -2 58 -2 57 -37 1 c-21 1 -59 2 -85 2 -26 1 -52 1 -58
-1z m142 -319 c-11 -16 -29 -37 -41 -47 l-21 -20 32 -33 c40 -41 25 -44 -17
-3 l-32 31 45 49 c50 56 64 64 34 23z m-519 -124 c5 -19 -48 -74 -100 -102
-39 -21 -40 -21 -53 3 -14 27 -5 42 60 95 44 36 56 41 71 32 10 -6 20 -19 22
-28z m111 -250 c-16 -17 -38 -35 -49 -41 -11 -6 -2 8 20 31 21 22 43 41 49 41
5 0 -3 -14 -20 -31z"/>
<path d="M1738 2352 l-37 -37 64 -70 65 -70 42 42 43 43 -65 65 c-35 36 -67
65 -70 64 -3 -1 -22 -17 -42 -37z m72 -74 c-45 -39 -52 -26 -9 18 19 20 35 30
38 23 2 -7 -11 -25 -29 -41z"/>
<path d="M2050 2313 c0 -70 2 -79 27 -105 15 -15 32 -28 38 -28 6 0 36 26 68
58 53 54 57 61 57 105 l0 47 -95 0 -95 0 0 -77z"/>
<path d="M2250 2337 c0 -53 -1 -55 -60 -111 l-60 -57 47 -55 c26 -30 48 -54
50 -54 1 0 30 25 63 56 l60 56 -3 109 -2 109 -47 0 -48 0 0 -53z"/>
<path d="M1885 2210 l-39 -40 114 -115 c63 -63 119 -115 125 -115 5 1 28 17
50 36 l39 35 -89 87 c-49 48 -76 72 -60 54 16 -17 30 -39 31 -48 1 -9 0 -13
-4 -10 -3 4 -20 -7 -37 -24 l-31 -30 -34 35 -34 35 37 38 37 38 -33 32 -33 32
-39 -40z"/>
<path d="M640 1960 c-35 -35 -19 -77 36 -94 48 -15 97 67 62 102 -19 19 -76
14 -98 -8z"/>
<path d="M4217 1962 c-23 -25 -21 -45 6 -70 46 -43 117 -23 117 32 0 48 -90
75 -123 38z"/>
<path d="M1634 1906 c-9 -36 -39 -59 -68 -54 -53 10 -34 -62 22 -83 57 -22
132 17 132 67 0 36 -20 71 -47 83 -32 15 -32 15 -39 -13z"/>
<path d="M1459 1588 c0 -2 -2 -12 -3 -24 -2 -17 -64 -124 -72 -124 -2 0 -13
18 -26 41 -17 31 -27 39 -43 35 -11 -3 -31 -6 -44 -6 -21 0 -23 -3 -17 -32 7
-38 46 -82 87 -98 94 -39 207 69 169 161 -10 24 -47 59 -51 47z"/>
<path d="M3546 1193 c4 -13 -1 -28 -14 -41 -16 -16 -27 -18 -61 -12 -54 10
-57 -21 -4 -49 32 -16 57 -14 87 10 31 24 34 58 7 90 -19 23 -20 23 -15 2z"/>
<path d="M1501 1195 c4 -27 -4 -37 -37 -51 -20 -9 -47 -13 -60 -10 -29 8 -31
-7 -4 -34 29 -29 66 -25 101 9 33 33 36 49 14 77 -8 10 -15 15 -14 9z"/>
<path d="M2205 731 c3 -10 -1 -24 -10 -31 -22 -18 -32 -3 -16 23 14 22 14 22
-8 3 -27 -24 -27 -56 0 -90 27 -34 71 -35 104 -1 14 13 25 34 25 45 0 29 -44
70 -75 70 -21 0 -25 -4 -20 -19z"/>
<path d="M2727 731 c6 -23 -31 -49 -43 -29 -14 23 -22 -26 -8 -53 24 -48 90
-55 123 -13 27 35 26 59 -4 89 -30 31 -76 35 -68 6z"/>
<path d="M2565 650 c22 -35 -81 -96 -146 -86 -38 6 -39 5 -29 -15 12 -21 66
-49 96 -49 30 0 81 31 93 56 18 40 12 104 -11 104 -5 0 -6 -4 -3 -10z"/>
</g>
</svg>
